<?xml version="1.0" encoding="UTF-8"?>
<svg version="1.1" xmlns="http://www.w3.org/2000/svg" width="1320" height="1000">
<path d="M0 0 C435.6 0 871.2 0 1320 0 C1320 330 1320 660 1320 1000 C884.4 1000 448.8 1000 0 1000 C0 670 0 340 0 0 Z " fill="#FEFEFE" transform="translate(0,0)"/>
<path d="M0 0 C5.61 0 11.22 0 17 0 C24.99520853 16.4106355 32.90429485 32.84938151 40.54638672 49.42773438 C44.52700915 58.04137639 48.66245673 66.56079195 53 75 C54.54631716 71.8033513 56.05729007 68.59118407 57.5625 65.375 C58.00013672 64.47136719 58.43777344 63.56773437 58.88867188 62.63671875 C59.50258789 61.31220703 59.50258789 61.31220703 60.12890625 59.9609375 C60.51119385 59.15446777 60.89348145 58.34799805 61.28735352 57.51708984 C62.94615025 51.65816751 60.13083451 46.61195545 57.61328125 41.3984375 C57.27378952 40.68072174 56.93429779 39.96300598 56.58451843 39.22354126 C55.50082038 36.93730305 54.40672085 34.65621732 53.3125 32.375 C52.59634585 30.8661982 51.88084522 29.35708604 51.16601562 27.84765625 C47.2411799 19.54448165 47.2411799 19.54448165 43.10693359 11.34472656 C42.5495752 10.27448242 41.9922168 9.20423828 41.41796875 8.1015625 C40.92449951 7.17939941 40.43103027 6.25723633 39.92260742 5.30712891 C39 3 39 3 40 0 C45.28 0 50.56 0 56 0 C60.5395243 8.91976705 64.9128645 17.82227086 68.82836914 27.03320312 C70.03914381 30.25011983 70.03914381 30.25011983 72 33 C72.41362793 32.10692139 72.82725586 31.21384277 73.25341797 30.29370117 C74.79029486 26.97710265 76.33044454 23.66203272 77.87158203 20.34741211 C78.53783957 18.91325629 79.20321164 17.47868877 79.86767578 16.04370117 C80.82351299 13.97986433 81.78253614 11.91753432 82.7421875 9.85546875 C83.03809784 9.21473923 83.33400818 8.5740097 83.6388855 7.91386414 C84.94538262 5.11377454 86.28104295 2.57843557 88 0 C90.7885289 -0.22107787 93.34653181 -0.28107535 96.125 -0.1875 C96.87910156 -0.17396484 97.63320313 -0.16042969 98.41015625 -0.14648438 C100.27374127 -0.11109985 102.13695978 -0.05729167 104 0 C103.438474 4.94818039 101.8219464 8.94325568 99.61328125 13.34765625 C99.27378952 14.04080429 98.93429779 14.73395233 98.58451843 15.44810486 C97.50112968 17.65657678 96.40727556 19.85965396 95.3125 22.0625 C94.59625416 23.51460375 93.88075287 24.96707499 93.16601562 26.41992188 C92.81529999 27.13248138 92.46458435 27.84504089 92.10324097 28.57919312 C91.06080354 30.70224462 90.02362364 32.82780773 88.98681641 34.95361328 C87.71160641 37.56734708 86.40583621 40.16147353 85.07177734 42.74560547 C84.50539551 43.8801416 83.93901367 45.01467773 83.35546875 46.18359375 C82.85039795 47.1677124 82.34532715 48.15183105 81.82495117 49.16577148 C80.75912898 52.82754416 81.5001204 54.5494892 83 58 C83.28697754 58.69899414 83.57395508 59.39798828 83.86962891 60.11816406 C84.15241699 60.74432617 84.43520508 61.37048828 84.7265625 62.015625 C85.190625 63.05589844 85.190625 63.05589844 85.6640625 64.1171875 C86.31185778 65.55497702 86.96030947 66.99247096 87.609375 68.4296875 C90 73.79352679 90 73.79352679 90 76 C90.66 76 91.32 76 92 76 C92.09571289 75.32718994 92.19142578 74.65437988 92.29003906 73.96118164 C93.17526108 70.26900219 94.71500624 67.02057696 96.359375 63.62109375 C96.70038239 62.90430954 97.04138977 62.18752533 97.39273071 61.44902039 C98.50687174 59.10945 99.62848697 56.7735441 100.75 54.4375 C101.91060562 52.00440463 103.06915562 49.57033796 104.22750854 47.13616943 C105.01004635 45.49187943 105.7931915 43.84787834 106.57693481 42.2041626 C110.77811947 33.38693193 114.88184462 24.52544227 118.97558594 15.65795898 C125.5398951 1.4601049 125.5398951 1.4601049 127 0 C129.69654854 -0.07319621 132.36691458 -0.09242537 135.0625 -0.0625 C135.82111328 -0.05798828 136.57972656 -0.05347656 137.36132812 -0.04882812 C139.24091871 -0.0370068 141.12046899 -0.01907078 143 0 C142.46949492 5.86721896 140.06626364 10.45309196 137.46875 15.63671875 C137.00545792 16.57710495 136.54216583 17.51749115 136.06483459 18.4863739 C134.55027215 21.55695594 133.02507323 24.6221269 131.5 27.6875 C130.45086656 29.8109286 129.40261462 31.93479294 128.35522461 34.05908203 C126.24344071 38.34111217 124.12848967 42.62155361 122.01123047 46.90087891 C118.17773251 54.65646055 114.38671006 62.43243831 110.61035156 70.2159729 C109.60241906 72.29274948 108.59242152 74.36851011 107.58203125 76.4440918 C107.26692596 77.09300888 106.95182068 77.74192596 106.62716675 78.4105072 C106.01205484 79.67616771 105.39502432 80.94089789 104.77590942 82.2046051 C103.08448915 85.67694282 101.47426476 89.17178657 99.92919922 92.71191406 C99.58026108 93.49587555 99.23132294 94.27983704 98.87181091 95.08755493 C98.198342 96.60584987 97.53990824 98.13092933 96.89881897 99.66317749 C95.97241211 101.73291016 95.97241211 101.73291016 94 105 C91.26000977 105.97412109 91.26000977 105.97412109 89 106 C82.89196384 94.86573245 77.34714496 83.51764569 72 72 C70.83046151 74.31108271 69.66445317 76.62385551 68.5 78.9375 C68.14123779 79.64592041 67.78247559 80.35434082 67.4128418 81.08422852 C65.46698156 84.95601102 63.60333118 88.8435405 61.86328125 92.8125 C61.51910156 93.58601807 61.17492187 94.35953613 60.8203125 95.15649414 C60.15749615 96.65666207 59.50985467 98.16364301 58.87890625 99.67749023 C57.95703125 101.74609375 57.95703125 101.74609375 56 105 C53.26171875 105.97265625 53.26171875 105.97265625 51 106 C47.51522849 101.10226874 44.97368026 96.00233788 42.4375 90.5625 C37.72622025 80.58779888 32.93062266 70.65739133 28.09197998 60.74398804 C26.87223267 58.24432884 25.65393712 55.74396697 24.43603516 53.2434082 C20.71150561 45.59816307 16.98127014 37.95585821 13.22979736 30.3237915 C11.63352597 27.07446748 10.04167357 23.8229901 8.45050049 20.57116699 C7.69562215 19.03145001 6.93860305 17.49278063 6.17938232 15.9552002 C5.13119638 13.83206957 4.09021039 11.70555308 3.05078125 9.578125 C2.7392662 8.95188232 2.42775116 8.32563965 2.10679626 7.68041992 C0.7577942 4.9023386 0 3.13552808 0 0 Z " fill="#8D83FC" transform="translate(809,447)"/>
<path d="M0 0 C0 10.56 0 21.12 0 32 C18.48 32 36.96 32 56 32 C56 42.89 56 53.78 56 65 C37.52 65 19.04 65 0 65 C0 75.56 0 86.12 0 97 C-7.86744457 92.50431739 -7.86744457 92.50431739 -10.76171875 90.08203125 C-11.39899902 89.55488525 -12.0362793 89.02773926 -12.69287109 88.48461914 C-13.35109863 87.93281982 -14.00932617 87.38102051 -14.6875 86.8125 C-20.26933444 82.20495638 -25.91727118 77.74952459 -31.73828125 73.4453125 C-35.90223251 70.34846466 -39.97520174 67.1343331 -44.0625 63.9375 C-50.61372854 58.81858209 -57.21747119 53.81051603 -64 49 C-60.16470436 44.95122342 -56.05782388 41.6629897 -51.5625 38.375 C-46.25458369 34.44505944 -40.99215621 30.47272265 -35.8125 26.375 C-30.35268208 22.05793467 -24.85226036 17.79963831 -19.32421875 13.5703125 C-16.91068754 11.71486945 -14.5230012 9.82985562 -12.14453125 7.9296875 C-11.50515625 7.42050781 -10.86578125 6.91132813 -10.20703125 6.38671875 C-8.96546712 5.39602737 -7.72705618 4.40136841 -6.4921875 3.40234375 C-2.22199955 0 -2.22199955 0 0 0 Z " fill="#8C82FC" transform="translate(262,468)"/>
<path d="M0 0 C8.99773243 6.74829932 8.99773243 6.74829932 12.0859375 9.15625 C12.77953369 9.69644775 13.47312988 10.23664551 14.18774414 10.79321289 C14.90953857 11.35645264 15.63133301 11.91969238 16.375 12.5 C17.15029053 13.10384521 17.92558105 13.70769043 18.72436523 14.32983398 C21.92046435 16.81919959 25.11531418 19.31016572 28.31005859 21.80126953 C30.56039381 23.55562834 32.81128954 25.30926447 35.0625 27.0625 C36.16259399 27.91968628 36.16259399 27.91968628 37.28491211 28.79418945 C41.11037371 31.77010867 44.94786314 34.72887701 48.8046875 37.6640625 C49.58191162 38.25566162 50.35913574 38.84726074 51.15991211 39.45678711 C52.64086554 40.58214662 54.12336893 41.70547032 55.60766602 42.82641602 C56.27209717 43.33100342 56.93652832 43.83559082 57.62109375 44.35546875 C58.2030249 44.79528076 58.78495605 45.23509277 59.38452148 45.68823242 C61.03871752 47.0314386 62.52072343 48.46804224 64 50 C63.27039063 50.55945313 62.54078125 51.11890625 61.7890625 51.6953125 C55.1749662 56.77428522 48.57960639 61.87641615 42 67 C34.68719884 72.69377317 27.35291901 78.35813761 20 84 C17.66616103 85.79100921 15.33294251 87.5828233 13 89.375 C11.96875 90.16648437 10.9375 90.95796875 9.875 91.7734375 C7.97400328 93.24567681 6.09799362 94.75081781 4.25 96.2890625 C2 98 2 98 0 98 C0 85.46 0 72.92 0 60 C-18.48 60 -36.96 60 -56 60 C-56 51.09 -56 42.18 -56 33 C-37.52 33 -19.04 33 0 33 C0 22.11 0 11.22 0 0 Z " fill="#8C82FC" transform="translate(324,434)"/>
<path d="M0 0 C4.62 0 9.24 0 14 0 C16.05656714 3.08485071 16.24979787 3.70783224 16.24723816 7.18838501 C16.25143265 8.0408934 16.25562714 8.89340179 16.25994873 9.77174377 C16.25432922 10.70381149 16.24870972 11.63587921 16.24291992 12.59619141 C16.24481827 13.58013382 16.24671661 14.56407623 16.24867249 15.57783508 C16.25238258 18.83582481 16.24167395 22.09359253 16.23046875 25.3515625 C16.22927714 27.60932387 16.22882375 29.86708574 16.2290802 32.12484741 C16.22751501 36.85767721 16.21922152 41.5904314 16.20581055 46.32324219 C16.18880126 52.40451908 16.18499673 58.48571298 16.18575573 64.56701088 C16.18548448 69.22853393 16.18001086 73.89003866 16.17275429 78.55155563 C16.16956175 80.79476152 16.16759885 83.03796949 16.16686058 85.28117752 C16.1647043 88.40835395 16.15597614 91.5354404 16.14526367 94.66259766 C16.14571686 95.59871384 16.14617004 96.53483002 16.14663696 97.49931335 C16.11447485 103.88552515 16.11447485 103.88552515 15 105 C13.14712498 105.07226502 11.29166122 105.0838122 9.4375 105.0625 C8.42558594 105.05347656 7.41367187 105.04445313 6.37109375 105.03515625 C5.58863281 105.02355469 4.80617188 105.01195312 4 105 C3.34 103.68 2.68 102.36 2 101 C1.46890625 101.27714844 0.9378125 101.55429687 0.390625 101.83984375 C-0.66898438 102.38318359 -0.66898438 102.38318359 -1.75 102.9375 C-2.44609375 103.29714844 -3.1421875 103.65679688 -3.859375 104.02734375 C-11.01352842 107.27804485 -20.42000479 107.25353674 -27.92578125 105.19921875 C-36.67268312 101.24066752 -42.84882764 93.9778251 -46.32421875 85.11328125 C-47.30587793 82.04346844 -47.77417517 79.21800379 -48 76 C-48.06316406 75.25105469 -48.12632812 74.50210938 -48.19140625 73.73046875 C-48.65556149 64.22277273 -45.88610983 56.76600391 -39.6875 49.5625 C-32.78905061 42.41443567 -26.76257094 39.88037869 -16.875 39.6875 C-15.01488281 39.63142578 -15.01488281 39.63142578 -13.1171875 39.57421875 C-9 40 -9 40 1 44 C0.67 29.48 0.34 14.96 0 0 Z " fill="#8F85FC" transform="translate(708,447)"/>
<path d="M0 0 C7.36018849 6.95666938 11.30428938 14.71683751 11.62890625 24.89453125 C10.58506505 28.38913003 8.87064986 29.77336552 6 32 C2.62178909 32.68852615 -0.67775217 32.58293741 -4.11328125 32.48828125 C-5.08283249 32.48120651 -6.05238373 32.47413177 -7.05131531 32.46684265 C-10.13917137 32.43891874 -13.22519475 32.37618303 -16.3125 32.3125 C-18.40947897 32.28741458 -20.50648644 32.26460184 -22.60351562 32.24414062 C-27.73638009 32.18909838 -32.86787964 32.10283859 -38 32 C-37.40377183 33.27587533 -36.79764508 34.54712738 -36.1875 35.81640625 C-35.85105469 36.52482666 -35.51460937 37.23324707 -35.16796875 37.96313477 C-33.10579819 41.55943263 -30.14073138 44.29687275 -26.1328125 45.61328125 C-18.24172098 47.04408356 -10.35456961 46.18566919 -3 43 C-1.63625826 42.04188401 -0.29307273 41.05154206 1 40 C4.16115776 41.36983503 4.9927092 41.9890638 7 45 C6.69166908 48.35883893 5.47366737 49.87401004 2.9375 52 C-2.41840247 56.33520794 -8.04382477 59.4649096 -15 60 C-16.29550781 60.11214844 -16.29550781 60.11214844 -17.6171875 60.2265625 C-27.1466383 60.69684708 -35.40023035 58.14226931 -42.9375 52.1875 C-49.2493438 46.18355102 -52.58335123 39.05389553 -53.30078125 30.3515625 C-53.33650549 18.99125369 -52.12512259 10.38062959 -44 2 C-31.14651795 -8.93730131 -13.7425493 -11.05378966 0 0 Z " fill="#8D83FC" transform="translate(1111,493)"/>
<path d="M0 0 C7.36018849 6.95666938 11.30428938 14.71683751 11.62890625 24.89453125 C10.58506505 28.38913003 8.87064986 29.77336552 6 32 C2.62178909 32.68852615 -0.67775217 32.58293741 -4.11328125 32.48828125 C-5.08283249 32.48120651 -6.05238373 32.47413177 -7.05131531 32.46684265 C-10.13917137 32.43891874 -13.22519475 32.37618303 -16.3125 32.3125 C-18.40947897 32.28741458 -20.50648644 32.26460184 -22.60351562 32.24414062 C-27.73638009 32.18909838 -32.86787964 32.10283859 -38 32 C-37.22773779 33.62736743 -36.44596675 35.25022499 -35.66015625 36.87109375 C-35.22582275 37.77529053 -34.79148926 38.6794873 -34.34399414 39.61108398 C-32.3303123 43.19035316 -30.04962516 44.37422949 -26.234375 45.5390625 C-17.41476892 47.35849173 -9.80417472 46.25092261 -2 42 C-0.33805262 41.32165413 1.32598903 40.64800425 3 40 C5.0625 42.25 5.0625 42.25 7 45 C6.68281142 48.35691247 5.47342108 49.87421649 2.9375 52 C-6.10082524 59.31585752 -15.51566242 61.02953026 -27 60 C-37.03593532 57.47659672 -44.26901948 51.87173204 -49.7734375 43.24609375 C-54.62784745 34.35664878 -54.71034258 23.04797947 -51.97265625 13.3671875 C-48.28348805 5.37569296 -42.41126712 -1.14510428 -34.375 -4.9375 C-22.35166655 -8.72262349 -10.06244883 -8.09370884 0 0 Z " fill="#8D84FC" transform="translate(790,493)"/>
<path d="M0 0 C5.39248635 4.52236116 8.46710031 10.53491599 9.30207825 17.53106689 C9.43987248 20.37757713 9.49326489 23.21272411 9.51171875 26.0625 C9.52966995 27.09439453 9.54762115 28.12628906 9.56611633 29.18945312 C9.61995456 32.45959484 9.65403022 35.72959281 9.6875 39 C9.72069642 41.22788447 9.75518821 43.45575004 9.79101562 45.68359375 C9.87566554 51.12226685 9.94412667 56.56095918 10 62 C8.21275286 62.06743622 6.42478387 62.11596206 4.63671875 62.15625 C3.14338013 62.19975586 3.14338013 62.19975586 1.61987305 62.24414062 C-1 62 -1 62 -3.1875 59.5 C-3.455625 58.675 -3.72375 57.85 -4 57 C-6.76501836 58.0572129 -9.3711414 59.19330281 -12 60.5625 C-19.24888969 64.03592631 -28.84268169 64.40674253 -36.4375 61.75 C-42.2657585 58.88699582 -45.83448015 56.2686101 -48 50 C-48.6443026 44.72771899 -48.70195768 40.4579121 -46.375 35.625 C-35.82821169 23.96802345 -20.2561852 20.27134877 -5 19 C-6.92391649 13.68588506 -6.92391649 13.68588506 -11 10 C-18.83827583 8.93001314 -25.70256331 10.47337691 -33.08984375 13.02734375 C-35.72577743 13.90834709 -38.26630649 14.5217295 -41 15 C-41.70226141 13.75823305 -42.38629109 12.50614401 -43.0625 11.25 C-43.44535156 10.55390625 -43.82820312 9.8578125 -44.22265625 9.140625 C-45 7 -45 7 -44.96875 4.8984375 C-42.76713007 0.58397264 -36.3114904 -0.46906928 -32 -2 C-31.31292969 -2.25136719 -30.62585938 -2.50273437 -29.91796875 -2.76171875 C-20.28909117 -5.71960925 -8.64243806 -5.39555525 0 0 Z " fill="#8F85FC" transform="translate(638,490)"/>
<path d="M0 0 C10.67419698 -0.02312328 21.34838806 -0.04091501 32.02260494 -0.05181217 C36.97853922 -0.05704103 41.93445642 -0.06413874 46.89038086 -0.07543945 C51.66898836 -0.08626822 56.44757938 -0.09227681 61.2261982 -0.09487724 C63.05353619 -0.09673151 64.88087324 -0.10035216 66.70820427 -0.10573006 C69.25853329 -0.11294036 71.80879337 -0.11399095 74.35913086 -0.11352539 C75.12229614 -0.11712067 75.88546143 -0.12071594 76.67175293 -0.12442017 C81.88594784 -0.11405216 81.88594784 -0.11405216 83 1 C83.09873816 2.99799572 83.12971799 4.99957158 83.125 7 C83.12886719 8.6396875 83.12886719 8.6396875 83.1328125 10.3125 C83 13 83 13 82 14 C79.55169574 14.08843793 77.13179401 14.11528752 74.68359375 14.09765625 C73.58701195 14.09553383 73.58701195 14.09553383 72.46827698 14.09336853 C70.12464368 14.08775408 67.78110461 14.07519922 65.4375 14.0625 C63.85221492 14.05748686 62.26692834 14.05292363 60.68164062 14.04882812 C56.7877239 14.03777997 52.89387795 14.02050572 49 14 C49.00222061 15.12530624 49.00444122 16.25061249 49.00672913 17.41001892 C49.02695944 27.9906144 49.0419716 38.57120597 49.05181217 49.15181637 C49.05704128 54.59202312 49.06413943 60.03221431 49.07543945 65.47241211 C49.08626735 70.71785702 49.09227662 75.96328692 49.09487724 81.20874214 C49.09673167 83.21470946 49.10035262 85.22067592 49.10573006 87.22663689 C49.11293919 90.02602824 49.113991 92.82535679 49.11352539 95.62475586 C49.11712067 96.46272705 49.12071594 97.30069824 49.12442017 98.1640625 C49.11405216 103.88594784 49.11405216 103.88594784 48 105 C46.02380553 105.12514928 44.04261827 105.1757276 42.0625 105.1875 C40.98097656 105.20167969 39.89945312 105.21585938 38.78515625 105.23046875 C36 105 36 105 34 103 C33.811826 100.16826905 33.7482662 97.43509248 33.77294922 94.60302734 C33.77265717 93.73466751 33.77236511 92.86630768 33.77206421 91.97163391 C33.77346083 89.09296782 33.78903758 86.21455854 33.8046875 83.3359375 C33.80841645 81.3433954 33.81126398 79.35085147 33.81326294 77.35830688 C33.82090868 72.10737061 33.84056523 66.85654452 33.8626709 61.60565186 C33.88310909 56.25013724 33.89226031 50.89460486 33.90234375 45.5390625 C33.92381025 35.02599319 33.95795751 24.51300575 34 14 C33.00556885 14.00523682 32.0111377 14.01047363 30.98657227 14.01586914 C27.30966079 14.03392041 23.63275325 14.04543246 19.95581055 14.05493164 C18.36205386 14.05997157 16.76830181 14.0668035 15.17456055 14.07543945 C12.88849747 14.08751999 10.60249533 14.09323155 8.31640625 14.09765625 C7.59973282 14.10281754 6.88305939 14.10797882 6.14466858 14.11329651 C4.42936328 14.11349263 2.71418734 14.06192007 1 14 C0 13 0 13 -0.09765625 10.05859375 C-0.08605469 8.86363281 -0.07445312 7.66867187 -0.0625 6.4375 C-0.05347656 5.23996094 -0.04445313 4.04242188 -0.03515625 2.80859375 C-0.02355469 1.88175781 -0.01195312 0.95492188 0 0 Z " fill="#8D83FC" transform="translate(438,447)"/>
<path d="M0 0 C0.77214844 0.38414062 1.54429688 0.76828125 2.33984375 1.1640625 C2.88769531 1.43992187 3.43554688 1.71578125 4 2 C3.39305845 5.15330554 2.3583335 7.18888867 0.4375 9.75 C-0.01753906 10.36359375 -0.47257812 10.9771875 -0.94140625 11.609375 C-1.29074219 12.06828125 -1.64007812 12.5271875 -2 13 C-4.83071277 12.48532495 -7.45159318 11.84946894 -10.1875 10.9375 C-14.81138006 9.80048031 -19.25851922 9.43632746 -24 10 C-27.2243063 11.64137117 -27.2243063 11.64137117 -27.5 14.4375 C-27.26973021 17.16356685 -27.26973021 17.16356685 -24.92578125 18.51171875 C-21.58265488 20.21229438 -18.2751229 21.28295544 -14.6875 22.375 C-6.20603593 25.09506291 2.61293531 28.67582597 7 37 C7.90693896 41.72207889 7.42284643 45.70658738 5.9375 50.25 C1.75448327 56.18718503 -3.71482799 60.65213178 -11 62 C-23.33083699 63.0602949 -33.86361312 61.67077926 -44 54 C-42.54955729 49.89041233 -40.48889248 46.56741255 -38 43 C-36.948125 43.433125 -36.948125 43.433125 -35.875 43.875 C-30.31866691 46.0492173 -25.83813642 47.27583338 -19.8125 47.25 C-17.99685547 47.25773438 -17.99685547 47.25773438 -16.14453125 47.265625 C-12.83882839 47.24116612 -12.83882839 47.24116612 -10 45 C-9.33314062 42.54327108 -9.33314062 42.54327108 -10 40 C-13.79510365 37.23214245 -17.78327569 36.02476005 -22.25 34.6875 C-29.97382406 32.23389511 -35.94738124 29.201527 -41.5625 23.3125 C-43.93846276 17.83745537 -44.18062254 12.36023339 -42.1875 6.6875 C-38.90131612 0.66282955 -33.53802526 -2.55565931 -27.09765625 -4.60546875 C-17.04787259 -6.49565152 -8.98298122 -4.5257768 0 0 Z " fill="#8E84FC" transform="translate(1040,491)"/>
<path d="M0 0 C11 0 11 0 13.6875 2.5 C14.120625 3.325 14.55375 4.15 15 5 C15.69609375 4.45859375 15.69609375 4.45859375 16.40625 3.90625 C23.7881132 -1.05171782 31.46126355 -1.01566023 40 0 C42.92707554 1.03022447 44.55920098 2.04736079 47 4 C46.39305845 7.15330554 45.3583335 9.18888867 43.4375 11.75 C42.98246094 12.36359375 42.52742187 12.9771875 42.05859375 13.609375 C41.53458984 14.29773438 41.53458984 14.29773438 41 15 C40.21625 14.835 39.4325 14.67 38.625 14.5 C31.59286696 13.53005062 25.09642269 12.79056528 19 17 C15.80818248 19.99498633 14.73762169 22.246117 14.45410156 26.51489258 C14.41301815 28.30775965 14.39303366 30.10119515 14.390625 31.89453125 C14.37408875 32.84188644 14.35755249 33.78924164 14.34051514 34.76530457 C14.29206109 37.7811025 14.27066977 40.79639626 14.25 43.8125 C14.22183818 45.86135345 14.19191045 47.91018345 14.16015625 49.95898438 C14.08630263 54.97261474 14.03671199 59.98596565 14 65 C9.38 65 4.76 65 0 65 C0 43.55 0 22.1 0 0 Z " fill="#8D83FC" transform="translate(535,487)"/>
<path d="M0 0 C1.64453125 0.97265625 1.64453125 0.97265625 2.64453125 1.97265625 C2.732441 4.26417042 2.75147163 6.55838149 2.7421875 8.8515625 C2.74077255 9.53822495 2.7393576 10.22488739 2.73789978 10.93235779 C2.73228604 13.13333426 2.71973132 15.33421034 2.70703125 17.53515625 C2.70201801 19.02408708 2.6974548 20.51301949 2.69335938 22.00195312 C2.68231218 25.658887 2.66503838 29.31576183 2.64453125 32.97265625 C1.08824419 33.6374191 -0.47256955 34.29158945 -2.03515625 34.94140625 C-2.90382324 35.30685547 -3.77249023 35.67230469 -4.66748047 36.04882812 C-10.45576048 38.03818794 -16.05523608 37.84269142 -21.66796875 35.41015625 C-26.66415795 32.57830812 -29.56326824 28.34925777 -31.35546875 22.97265625 C-32.01033 15.61014473 -32.58967776 8.61506292 -27.88671875 2.52734375 C-20.04697527 -5.43239581 -9.52961597 -4.7905637 0 0 Z " fill="#FDFDFE" transform="translate(706.35546875,503.02734375)"/>
<path d="M0 0 C1.093125 0.00257813 2.18625 0.00515625 3.3125 0.0078125 C4.405625 0.00523437 5.49875 0.00265625 6.625 0 C9.3125 0.1328125 9.3125 0.1328125 10.3125 1.1328125 C10.40655142 3.1271298 10.42993249 5.12480793 10.42602539 7.12133789 C10.42594986 8.40259048 10.42587433 9.68384308 10.42579651 11.00392151 C10.42068909 12.41277098 10.41547309 13.82162006 10.41015625 15.23046875 C10.40829202 16.66393484 10.40686814 18.09740157 10.40586853 19.53086853 C10.40204372 23.31041207 10.39221377 27.0899174 10.38116455 30.8694458 C10.37094963 34.72350548 10.36637074 38.57757132 10.36132812 42.43164062 C10.35059146 49.99871537 10.33351549 57.56575859 10.3125 65.1328125 C8.35446493 65.18670337 6.39601091 65.22555467 4.4375 65.2578125 C2.80167969 65.29261719 2.80167969 65.29261719 1.1328125 65.328125 C-1.6875 65.1328125 -1.6875 65.1328125 -3.6875 63.1328125 C-3.93473816 60.54527283 -3.93473816 60.54527283 -3.93041992 57.23022461 C-3.93349655 55.99231674 -3.93657318 54.75440887 -3.93974304 53.47898865 C-3.93284583 52.1227093 -3.9255789 50.76643179 -3.91796875 49.41015625 C-3.91677703 48.02535546 -3.91632377 46.64055385 -3.9165802 45.25575256 C-3.91501518 42.35298608 -3.90672339 39.45034289 -3.89331055 36.54760742 C-3.87630479 32.81927393 -3.87249664 29.09107582 -3.87325573 25.36270809 C-3.87298437 22.50349119 -3.86750887 19.64430413 -3.86025429 16.78509712 C-3.85706343 15.40992013 -3.85509924 14.03473975 -3.85436058 12.65955925 C-3.85220235 10.74169582 -3.84267294 8.8238449 -3.83276367 6.90600586 C-3.82895187 5.81283554 -3.82514008 4.71966522 -3.82121277 3.59336853 C-3.63372823 0.14331495 -3.4726707 0.17161454 0 0 Z " fill="#8C82FC" transform="translate(969.6875,486.8671875)"/>
<path d="M0 0 C0.66 0 1.32 0 2 0 C2 8.91 2 17.82 2 27 C-9.55 27 -21.1 27 -33 27 C-27.37877211 21.37877211 -27.37877211 21.37877211 -24.14453125 18.94921875 C-23.44392578 18.4190918 -22.74332031 17.88896484 -22.02148438 17.34277344 C-21.29251953 16.7965332 -20.56355469 16.25029297 -19.8125 15.6875 C-18.29754199 14.54120345 -16.78321695 13.39406986 -15.26953125 12.24609375 C-14.53943848 11.6929248 -13.8093457 11.13975586 -13.05712891 10.56982422 C-6.28554193 5.56424421 -6.28554193 5.56424421 0 0 Z " fill="#9086FC" transform="translate(367,506)"/>
<path d="M0 0 C11.22 0 22.44 0 34 0 C30.36055462 3.63944538 27.0556481 6.62041612 23 9.6875 C21.85656959 10.55442213 20.71334686 11.42161824 19.5703125 12.2890625 C18.69294434 12.95276855 18.69294434 12.95276855 17.79785156 13.62988281 C15.97639058 15.01799241 14.17005014 16.42377609 12.3671875 17.8359375 C11.78195313 18.29266846 11.19671875 18.74939941 10.59375 19.2199707 C9.46910178 20.09844237 8.34661169 20.97968573 7.2265625 21.86401367 C4.80840431 23.74365841 2.93410453 25.02196516 0 26 C0 17.42 0 8.84 0 0 Z " fill="#8D83FC" transform="translate(218,467)"/>
<path d="M0 0 C0 4.62 0 9.24 0 14 C-7.89882419 18.78716617 -14.73887129 20.44516963 -24 19 C-25.87890625 17.68359375 -25.87890625 17.68359375 -27 16 C-27.5 12.5625 -27.5 12.5625 -27 9 C-20.37110999 1.76848362 -9.35839472 0 0 0 Z " fill="#FDFDFE" transform="translate(632,522)"/>
<path d="M0 0 C4.25235468 2.80268831 7.9594065 5.92906318 9.75 10.8125 C9.75 11.8025 9.75 12.7925 9.75 13.8125 C-1.47 13.8125 -12.69 13.8125 -24.25 13.8125 C-23.06961933 6.73021596 -21.74600557 4.62332757 -16.0625 0.5 C-10.74954731 -2.30469177 -5.53701018 -2.02313833 0 0 Z " fill="#F9F9FE" transform="translate(1097.25,500.1875)"/>
<path d="M0 0 C4.05978318 2.3965573 7.25799958 5.00733058 9.78515625 9.05078125 C10.28015625 11.52578125 10.28015625 11.52578125 10.78515625 14.05078125 C-0.43484375 14.05078125 -11.65484375 14.05078125 -23.21484375 14.05078125 C-22.18130765 7.84956466 -21.48445082 6.32038832 -17.21484375 2.05078125 C-11.92724144 -1.55440214 -5.96489808 -2.55638489 0 0 Z " fill="#F9F9FE" transform="translate(775.21484375,499.94921875)"/>
<path d="M0 0 C4.0743356 0.84881992 5.54405875 2.30225596 8 5.625 C8.6875 8.625 8.6875 8.625 8 11.625 C5.375 14.5625 5.375 14.5625 2 16.625 C-1.69665479 16.6989331 -3.37566946 16.06860328 -6.375 13.9375 C-8 11.625 -8 11.625 -8.5625 8.6875 C-7.6312578 3.61740357 -5.03838915 1.04966441 0 0 Z " fill="#9187FC" transform="translate(973,446.375)"/>
</svg>
